<?xml version="1.0" encoding="UTF-8" standalone="no"?>
<!DOCTYPE svg PUBLIC "-//W3C//DTD SVG 1.1//EN"
 "http://www.w3.org/Graphics/SVG/1.1/DTD/svg11.dtd">
<!-- Generated by graphviz version 2.38.0 (20140413.2041)
 -->
<!-- Title: controllers_diagram Pages: 1 -->
<svg width="342pt" height="261pt"
 viewBox="0.00 0.00 342.01 261.00" xmlns="http://www.w3.org/2000/svg" xmlns:xlink="http://www.w3.org/1999/xlink">
<g id="graph0" class="graph" transform="scale(1 1) rotate(0) translate(67.5586 145.5)">
<title>controllers_diagram</title>
<polygon fill="none" stroke="none" points="-67.5586,115.5 -67.5586,-145.5 274.45,-145.5 274.45,115.5 -67.5586,115.5"/>
<!-- _diagram_info -->
<g id="node1" class="node"><title>_diagram_info</title>
<text text-anchor="start" x="71.5503" y="4.9" font-family="Times,serif" font-size="13.00">Controllers diagram</text>
<text text-anchor="start" x="71.5503" y="17.9" font-family="Times,serif" font-size="13.00">Date: Jul 20 2016 &#45; 19:12</text>
<text text-anchor="start" x="71.5503" y="30.9" font-family="Times,serif" font-size="13.00">Migration version: 20160720231108</text>
<text text-anchor="start" x="71.5503" y="43.9" font-family="Times,serif" font-size="13.00">Generated by RailRoady 1.5.1</text>
<text text-anchor="start" x="71.5503" y="56.9" font-family="Times,serif" font-size="13.00">http://railroady.prestonlee.com</text>
</g>
<!-- ApplicationController -->
<g id="node2" class="node"><title>ApplicationController</title>
<path fill="none" stroke="black" d="M76.1792,-49C76.1792,-49 191.821,-49 191.821,-49 197.821,-49 203.821,-55 203.821,-61 203.821,-61 203.821,-129 203.821,-129 203.821,-135 197.821,-141 191.821,-141 191.821,-141 76.1792,-141 76.1792,-141 70.1792,-141 64.1792,-135 64.1792,-129 64.1792,-129 64.1792,-61 64.1792,-61 64.1792,-55 70.1792,-49 76.1792,-49"/>
<text text-anchor="middle" x="134" y="-125.8" font-family="Times,serif" font-size="14.00">ApplicationController</text>
<polyline fill="none" stroke="black" points="64.1792,-119 203.821,-119 "/>
<polyline fill="none" stroke="black" points="64.1792,-95 203.821,-95 "/>
<polyline fill="none" stroke="black" points="64.1792,-71 203.821,-71 "/>
<text text-anchor="start" x="72.1792" y="-55.8" font-family="Times,serif" font-size="14.00">_layout</text>
</g>
<!-- PostsController -->
<g id="node3" class="node"><title>PostsController</title>
<path fill="none" stroke="black" d="M-51.5586,111C-51.5586,111 27.5586,111 27.5586,111 33.5586,111 39.5586,105 39.5586,99 39.5586,99 39.5586,-79 39.5586,-79 39.5586,-85 33.5586,-91 27.5586,-91 27.5586,-91 -51.5586,-91 -51.5586,-91 -57.5586,-91 -63.5586,-85 -63.5586,-79 -63.5586,-79 -63.5586,99 -63.5586,99 -63.5586,105 -57.5586,111 -51.5586,111"/>
<text text-anchor="middle" x="-12" y="-75.8" font-family="Times,serif" font-size="14.00">PostsController</text>
<polyline fill="none" stroke="black" points="-63.5586,-69 39.5586,-69 "/>
<text text-anchor="start" x="-55.5586" y="-53.8" font-family="Times,serif" font-size="14.00">index</text>
<text text-anchor="start" x="-55.5586" y="-39.8" font-family="Times,serif" font-size="14.00">destroy</text>
<text text-anchor="start" x="-55.5586" y="-25.8" font-family="Times,serif" font-size="14.00">edit</text>
<text text-anchor="start" x="-55.5586" y="-11.8" font-family="Times,serif" font-size="14.00">create</text>
<text text-anchor="start" x="-55.5586" y="2.2" font-family="Times,serif" font-size="14.00">new</text>
<text text-anchor="start" x="-55.5586" y="16.2" font-family="Times,serif" font-size="14.00">show</text>
<text text-anchor="start" x="-55.5586" y="30.2" font-family="Times,serif" font-size="14.00">update</text>
<polyline fill="none" stroke="black" points="-63.5586,37 39.5586,37 "/>
<polyline fill="none" stroke="black" points="-63.5586,61 39.5586,61 "/>
<text text-anchor="start" x="-55.5586" y="76.2" font-family="Times,serif" font-size="14.00">_layout</text>
<text text-anchor="start" x="-55.5586" y="90.2" font-family="Times,serif" font-size="14.00">post_params</text>
<text text-anchor="start" x="-55.5586" y="104.2" font-family="Times,serif" font-size="14.00">set_post</text>
</g>
</g>
</svg>
