<?xml version="1.0" encoding="UTF-8" standalone="no"?>
<!DOCTYPE svg PUBLIC "-//W3C//DTD SVG 1.1//EN"
 "http://www.w3.org/Graphics/SVG/1.1/DTD/svg11.dtd">
<!-- Generated by graphviz version 2.38.0 (20140413.2041)
 -->
<!-- Title: controllers_diagram Pages: 1 -->
<svg width="758pt" height="691pt"
 viewBox="0.00 0.00 758.27 691.00" xmlns="http://www.w3.org/2000/svg" xmlns:xlink="http://www.w3.org/1999/xlink">
<g id="graph0" class="graph" transform="scale(1 1) rotate(0) translate(307.821 399.5)">
<title>controllers_diagram</title>
<polygon fill="none" stroke="none" points="-307.821,291.5 -307.821,-399.5 450.45,-399.5 450.45,291.5 -307.821,291.5"/>
<!-- _diagram_info -->
<g id="node1" class="node"><title>_diagram_info</title>
<text text-anchor="start" x="247.55" y="-139.1" font-family="Times,serif" font-size="13.00">Controllers diagram</text>
<text text-anchor="start" x="247.55" y="-126.1" font-family="Times,serif" font-size="13.00">Date: Jul 22 2016 &#45; 21:13</text>
<text text-anchor="start" x="247.55" y="-113.1" font-family="Times,serif" font-size="13.00">Migration version: 20160723011235</text>
<text text-anchor="start" x="247.55" y="-100.1" font-family="Times,serif" font-size="13.00">Generated by RailRoady 1.5.1</text>
<text text-anchor="start" x="247.55" y="-87.1" font-family="Times,serif" font-size="13.00">http://railroady.prestonlee.com</text>
</g>
<!-- ApplicationController -->
<g id="node2" class="node"><title>ApplicationController</title>
<path fill="none" stroke="black" d="M-291.821,-65C-291.821,-65 -176.179,-65 -176.179,-65 -170.179,-65 -164.179,-71 -164.179,-77 -164.179,-77 -164.179,-145 -164.179,-145 -164.179,-151 -170.179,-157 -176.179,-157 -176.179,-157 -291.821,-157 -291.821,-157 -297.821,-157 -303.821,-151 -303.821,-145 -303.821,-145 -303.821,-77 -303.821,-77 -303.821,-71 -297.821,-65 -291.821,-65"/>
<text text-anchor="middle" x="-234" y="-141.8" font-family="Times,serif" font-size="14.00">ApplicationController</text>
<polyline fill="none" stroke="black" points="-303.821,-135 -164.179,-135 "/>
<polyline fill="none" stroke="black" points="-303.821,-111 -164.179,-111 "/>
<polyline fill="none" stroke="black" points="-303.821,-87 -164.179,-87 "/>
<text text-anchor="start" x="-295.821" y="-71.8" font-family="Times,serif" font-size="14.00">_layout</text>
</g>
<!-- CommentsController -->
<g id="node3" class="node"><title>CommentsController</title>
<path fill="none" stroke="black" d="M91.8931,-81C91.8931,-81 202.107,-81 202.107,-81 208.107,-81 214.107,-87 214.107,-93 214.107,-93 214.107,-257 214.107,-257 214.107,-263 208.107,-269 202.107,-269 202.107,-269 91.8931,-269 91.8931,-269 85.8931,-269 79.8931,-263 79.8931,-257 79.8931,-257 79.8931,-93 79.8931,-93 79.8931,-87 85.8931,-81 91.8931,-81"/>
<text text-anchor="middle" x="147" y="-253.8" font-family="Times,serif" font-size="14.00">CommentsController</text>
<polyline fill="none" stroke="black" points="79.8931,-247 214.107,-247 "/>
<text text-anchor="start" x="87.8931" y="-231.8" font-family="Times,serif" font-size="14.00">create</text>
<text text-anchor="start" x="87.8931" y="-217.8" font-family="Times,serif" font-size="14.00">destroy</text>
<text text-anchor="start" x="87.8931" y="-203.8" font-family="Times,serif" font-size="14.00">edit</text>
<text text-anchor="start" x="87.8931" y="-189.8" font-family="Times,serif" font-size="14.00">index</text>
<text text-anchor="start" x="87.8931" y="-175.8" font-family="Times,serif" font-size="14.00">show</text>
<text text-anchor="start" x="87.8931" y="-161.8" font-family="Times,serif" font-size="14.00">update</text>
<polyline fill="none" stroke="black" points="79.8931,-155 214.107,-155 "/>
<polyline fill="none" stroke="black" points="79.8931,-131 214.107,-131 "/>
<text text-anchor="start" x="87.8931" y="-115.8" font-family="Times,serif" font-size="14.00">_layout</text>
<text text-anchor="start" x="87.8931" y="-101.8" font-family="Times,serif" font-size="14.00">comment_params</text>
<text text-anchor="start" x="87.8931" y="-87.8" font-family="Times,serif" font-size="14.00">set_comment</text>
</g>
<!-- NotesController -->
<g id="node4" class="node"><title>NotesController</title>
<path fill="none" stroke="black" d="M-52.1035,-81C-52.1035,-81 30.1035,-81 30.1035,-81 36.1035,-81 42.1035,-87 42.1035,-93 42.1035,-93 42.1035,-271 42.1035,-271 42.1035,-277 36.1035,-283 30.1035,-283 30.1035,-283 -52.1035,-283 -52.1035,-283 -58.1035,-283 -64.1035,-277 -64.1035,-271 -64.1035,-271 -64.1035,-93 -64.1035,-93 -64.1035,-87 -58.1035,-81 -52.1035,-81"/>
<text text-anchor="middle" x="-11" y="-267.8" font-family="Times,serif" font-size="14.00">NotesController</text>
<polyline fill="none" stroke="black" points="-64.1035,-261 42.1035,-261 "/>
<text text-anchor="start" x="-56.1035" y="-245.8" font-family="Times,serif" font-size="14.00">index</text>
<text text-anchor="start" x="-56.1035" y="-231.8" font-family="Times,serif" font-size="14.00">destroy</text>
<text text-anchor="start" x="-56.1035" y="-217.8" font-family="Times,serif" font-size="14.00">edit</text>
<text text-anchor="start" x="-56.1035" y="-203.8" font-family="Times,serif" font-size="14.00">create</text>
<text text-anchor="start" x="-56.1035" y="-189.8" font-family="Times,serif" font-size="14.00">new</text>
<text text-anchor="start" x="-56.1035" y="-175.8" font-family="Times,serif" font-size="14.00">show</text>
<text text-anchor="start" x="-56.1035" y="-161.8" font-family="Times,serif" font-size="14.00">update</text>
<polyline fill="none" stroke="black" points="-64.1035,-155 42.1035,-155 "/>
<polyline fill="none" stroke="black" points="-64.1035,-131 42.1035,-131 "/>
<text text-anchor="start" x="-56.1035" y="-115.8" font-family="Times,serif" font-size="14.00">_layout</text>
<text text-anchor="start" x="-56.1035" y="-101.8" font-family="Times,serif" font-size="14.00">note_params</text>
<text text-anchor="start" x="-56.1035" y="-87.8" font-family="Times,serif" font-size="14.00">set_note</text>
</g>
<!-- PostsController -->
<g id="node5" class="node"><title>PostsController</title>
<path fill="none" stroke="black" d="M140.441,159C140.441,159 219.559,159 219.559,159 225.559,159 231.559,153 231.559,147 231.559,147 231.559,-31 231.559,-31 231.559,-37 225.559,-43 219.559,-43 219.559,-43 140.441,-43 140.441,-43 134.441,-43 128.441,-37 128.441,-31 128.441,-31 128.441,147 128.441,147 128.441,153 134.441,159 140.441,159"/>
<text text-anchor="middle" x="180" y="-27.8" font-family="Times,serif" font-size="14.00">PostsController</text>
<polyline fill="none" stroke="black" points="128.441,-21 231.559,-21 "/>
<text text-anchor="start" x="136.441" y="-5.8" font-family="Times,serif" font-size="14.00">index</text>
<text text-anchor="start" x="136.441" y="8.2" font-family="Times,serif" font-size="14.00">destroy</text>
<text text-anchor="start" x="136.441" y="22.2" font-family="Times,serif" font-size="14.00">edit</text>
<text text-anchor="start" x="136.441" y="36.2" font-family="Times,serif" font-size="14.00">create</text>
<text text-anchor="start" x="136.441" y="50.2" font-family="Times,serif" font-size="14.00">new</text>
<text text-anchor="start" x="136.441" y="64.2" font-family="Times,serif" font-size="14.00">show</text>
<text text-anchor="start" x="136.441" y="78.2" font-family="Times,serif" font-size="14.00">update</text>
<polyline fill="none" stroke="black" points="128.441,85 231.559,85 "/>
<polyline fill="none" stroke="black" points="128.441,109 231.559,109 "/>
<text text-anchor="start" x="136.441" y="124.2" font-family="Times,serif" font-size="14.00">_layout</text>
<text text-anchor="start" x="136.441" y="138.2" font-family="Times,serif" font-size="14.00">post_params</text>
<text text-anchor="start" x="136.441" y="152.2" font-family="Times,serif" font-size="14.00">set_post</text>
</g>
<!-- TagsController -->
<g id="node6" class="node"><title>TagsController</title>
<path fill="none" stroke="black" d="M-179.891,-193C-179.891,-193 -104.109,-193 -104.109,-193 -98.1094,-193 -92.1094,-199 -92.1094,-205 -92.1094,-205 -92.1094,-383 -92.1094,-383 -92.1094,-389 -98.1094,-395 -104.109,-395 -104.109,-395 -179.891,-395 -179.891,-395 -185.891,-395 -191.891,-389 -191.891,-383 -191.891,-383 -191.891,-205 -191.891,-205 -191.891,-199 -185.891,-193 -179.891,-193"/>
<text text-anchor="middle" x="-142" y="-379.8" font-family="Times,serif" font-size="14.00">TagsController</text>
<polyline fill="none" stroke="black" points="-191.891,-373 -92.1094,-373 "/>
<text text-anchor="start" x="-183.891" y="-357.8" font-family="Times,serif" font-size="14.00">index</text>
<text text-anchor="start" x="-183.891" y="-343.8" font-family="Times,serif" font-size="14.00">destroy</text>
<text text-anchor="start" x="-183.891" y="-329.8" font-family="Times,serif" font-size="14.00">edit</text>
<text text-anchor="start" x="-183.891" y="-315.8" font-family="Times,serif" font-size="14.00">create</text>
<text text-anchor="start" x="-183.891" y="-301.8" font-family="Times,serif" font-size="14.00">new</text>
<text text-anchor="start" x="-183.891" y="-287.8" font-family="Times,serif" font-size="14.00">show</text>
<text text-anchor="start" x="-183.891" y="-273.8" font-family="Times,serif" font-size="14.00">update</text>
<polyline fill="none" stroke="black" points="-191.891,-267 -92.1094,-267 "/>
<polyline fill="none" stroke="black" points="-191.891,-243 -92.1094,-243 "/>
<text text-anchor="start" x="-183.891" y="-227.8" font-family="Times,serif" font-size="14.00">_layout</text>
<text text-anchor="start" x="-183.891" y="-213.8" font-family="Times,serif" font-size="14.00">set_tag</text>
<text text-anchor="start" x="-183.891" y="-199.8" font-family="Times,serif" font-size="14.00">tag_params</text>
</g>
<!-- Users::ConfirmationsController -->
<g id="node7" class="node"><title>Users::ConfirmationsController</title>
<path fill="none" stroke="black" d="M-163.662,175C-163.662,175 5.66211,175 5.66211,175 11.6621,175 17.6621,169 17.6621,163 17.6621,163 17.6621,95 17.6621,95 17.6621,89 11.6621,83 5.66211,83 5.66211,83 -163.662,83 -163.662,83 -169.662,83 -175.662,89 -175.662,95 -175.662,95 -175.662,163 -175.662,163 -175.662,169 -169.662,175 -163.662,175"/>
<text text-anchor="middle" x="-79" y="98.2" font-family="Times,serif" font-size="14.00">Users::ConfirmationsController</text>
<polyline fill="none" stroke="black" points="-175.662,105 17.6621,105 "/>
<polyline fill="none" stroke="black" points="-175.662,129 17.6621,129 "/>
<polyline fill="none" stroke="black" points="-175.662,153 17.6621,153 "/>
<text text-anchor="start" x="-167.662" y="168.2" font-family="Times,serif" font-size="14.00">_layout</text>
</g>
<!-- Users::OmniauthCallbacksController -->
<g id="node8" class="node"><title>Users::OmniauthCallbacksController</title>
<path fill="none" stroke="black" d="M-116.204,47C-116.204,47 84.2036,47 84.2036,47 90.2036,47 96.2036,41 96.2036,35 96.2036,35 96.2036,-33 96.2036,-33 96.2036,-39 90.2036,-45 84.2036,-45 84.2036,-45 -116.204,-45 -116.204,-45 -122.204,-45 -128.204,-39 -128.204,-33 -128.204,-33 -128.204,35 -128.204,35 -128.204,41 -122.204,47 -116.204,47"/>
<text text-anchor="middle" x="-16" y="-29.8" font-family="Times,serif" font-size="14.00">Users::OmniauthCallbacksController</text>
<polyline fill="none" stroke="black" points="-128.204,-23 96.2036,-23 "/>
<polyline fill="none" stroke="black" points="-128.204,1 96.2036,1 "/>
<polyline fill="none" stroke="black" points="-128.204,25 96.2036,25 "/>
<text text-anchor="start" x="-120.204" y="40.2" font-family="Times,serif" font-size="14.00">_layout</text>
</g>
<!-- Users::PasswordsController -->
<g id="node9" class="node"><title>Users::PasswordsController</title>
<path fill="none" stroke="black" d="M267.838,255C267.838,255 416.162,255 416.162,255 422.162,255 428.162,249 428.162,243 428.162,243 428.162,175 428.162,175 428.162,169 422.162,163 416.162,163 416.162,163 267.838,163 267.838,163 261.838,163 255.838,169 255.838,175 255.838,175 255.838,243 255.838,243 255.838,249 261.838,255 267.838,255"/>
<text text-anchor="middle" x="342" y="178.2" font-family="Times,serif" font-size="14.00">Users::PasswordsController</text>
<polyline fill="none" stroke="black" points="255.838,185 428.162,185 "/>
<polyline fill="none" stroke="black" points="255.838,209 428.162,209 "/>
<polyline fill="none" stroke="black" points="255.838,233 428.162,233 "/>
<text text-anchor="start" x="263.838" y="248.2" font-family="Times,serif" font-size="14.00">_layout</text>
</g>
<!-- Users::RegistrationsController -->
<g id="node10" class="node"><title>Users::RegistrationsController</title>
<path fill="none" stroke="black" d="M252.455,-193C252.455,-193 415.545,-193 415.545,-193 421.545,-193 427.545,-199 427.545,-205 427.545,-205 427.545,-271 427.545,-271 427.545,-277 421.545,-283 415.545,-283 415.545,-283 252.455,-283 252.455,-283 246.455,-283 240.455,-277 240.455,-271 240.455,-271 240.455,-205 240.455,-205 240.455,-199 246.455,-193 252.455,-193"/>
<text text-anchor="middle" x="334" y="-267.8" font-family="Times,serif" font-size="14.00">Users::RegistrationsController</text>
<polyline fill="none" stroke="black" points="240.455,-261 427.545,-261 "/>
<text text-anchor="start" x="248.455" y="-245.8" font-family="Times,serif" font-size="14.00">configure_sign_up_params</text>
<polyline fill="none" stroke="black" points="240.455,-239 427.545,-239 "/>
<polyline fill="none" stroke="black" points="240.455,-215 427.545,-215 "/>
<text text-anchor="start" x="248.455" y="-199.8" font-family="Times,serif" font-size="14.00">_layout</text>
</g>
<!-- Users::SessionsController -->
<g id="node11" class="node"><title>Users::SessionsController</title>
<path fill="none" stroke="black" d="M268.279,127C268.279,127 405.721,127 405.721,127 411.721,127 417.721,121 417.721,115 417.721,115 417.721,47 417.721,47 417.721,41 411.721,35 405.721,35 405.721,35 268.279,35 268.279,35 262.279,35 256.279,41 256.279,47 256.279,47 256.279,115 256.279,115 256.279,121 262.279,127 268.279,127"/>
<text text-anchor="middle" x="337" y="50.2" font-family="Times,serif" font-size="14.00">Users::SessionsController</text>
<polyline fill="none" stroke="black" points="256.279,57 417.721,57 "/>
<polyline fill="none" stroke="black" points="256.279,81 417.721,81 "/>
<polyline fill="none" stroke="black" points="256.279,105 417.721,105 "/>
<text text-anchor="start" x="264.279" y="120.2" font-family="Times,serif" font-size="14.00">_layout</text>
</g>
<!-- Users::UnlocksController -->
<g id="node12" class="node"><title>Users::UnlocksController</title>
<path fill="none" stroke="black" d="M60.0654,287C60.0654,287 195.935,287 195.935,287 201.935,287 207.935,281 207.935,275 207.935,275 207.935,207 207.935,207 207.935,201 201.935,195 195.935,195 195.935,195 60.0654,195 60.0654,195 54.0654,195 48.0654,201 48.0654,207 48.0654,207 48.0654,275 48.0654,275 48.0654,281 54.0654,287 60.0654,287"/>
<text text-anchor="middle" x="128" y="210.2" font-family="Times,serif" font-size="14.00">Users::UnlocksController</text>
<polyline fill="none" stroke="black" points="48.0654,217 207.935,217 "/>
<polyline fill="none" stroke="black" points="48.0654,241 207.935,241 "/>
<polyline fill="none" stroke="black" points="48.0654,265 207.935,265 "/>
<text text-anchor="start" x="56.0654" y="280.2" font-family="Times,serif" font-size="14.00">_layout</text>
</g>
<!-- VotesController -->
<g id="node13" class="node"><title>VotesController</title>
<path fill="none" stroke="black" d="M107.799,-305C107.799,-305 188.201,-305 188.201,-305 194.201,-305 200.201,-311 200.201,-317 200.201,-317 200.201,-383 200.201,-383 200.201,-389 194.201,-395 188.201,-395 188.201,-395 107.799,-395 107.799,-395 101.799,-395 95.7988,-389 95.7988,-383 95.7988,-383 95.7988,-317 95.7988,-317 95.7988,-311 101.799,-305 107.799,-305"/>
<text text-anchor="middle" x="148" y="-379.8" font-family="Times,serif" font-size="14.00">VotesController</text>
<polyline fill="none" stroke="black" points="95.7988,-373 200.201,-373 "/>
<text text-anchor="start" x="103.799" y="-357.8" font-family="Times,serif" font-size="14.00">create</text>
<polyline fill="none" stroke="black" points="95.7988,-351 200.201,-351 "/>
<polyline fill="none" stroke="black" points="95.7988,-327 200.201,-327 "/>
<text text-anchor="start" x="103.799" y="-311.8" font-family="Times,serif" font-size="14.00">_layout</text>
</g>
</g>
</svg>
