<?xml version="1.0" encoding="UTF-8" standalone="no"?>
<!DOCTYPE svg PUBLIC "-//W3C//DTD SVG 1.1//EN"
 "http://www.w3.org/Graphics/SVG/1.1/DTD/svg11.dtd">
<!-- Generated by graphviz version 2.38.0 (20140413.2041)
 -->
<!-- Title: models_diagram Pages: 1 -->
<svg width="359pt" height="297pt"
 viewBox="0.00 0.00 358.75 297.00" xmlns="http://www.w3.org/2000/svg" xmlns:xlink="http://www.w3.org/1999/xlink">
<g id="graph0" class="graph" transform="scale(1 1) rotate(0) translate(4 293)">
<title>models_diagram</title>
<polygon fill="none" stroke="none" points="-4,4 -4,-293 354.747,-293 354.747,4 -4,4"/>
<!-- _diagram_info -->
<g id="node1" class="node"><title>_diagram_info</title>
<text text-anchor="start" x="8" y="-274.6" font-family="Times,serif" font-size="13.00">Models diagram</text>
<text text-anchor="start" x="8" y="-261.6" font-family="Times,serif" font-size="13.00">Date: Jul 22 2016 &#45; 21:13</text>
<text text-anchor="start" x="8" y="-248.6" font-family="Times,serif" font-size="13.00">Migration version: 20160723011235</text>
<text text-anchor="start" x="8" y="-235.6" font-family="Times,serif" font-size="13.00">Generated by RailRoady 1.5.1</text>
<text text-anchor="start" x="8" y="-222.6" font-family="Times,serif" font-size="13.00">http://railroady.prestonlee.com</text>
</g>
<!-- Comment -->
<g id="node2" class="node"><title>Comment</title>
<ellipse fill="none" stroke="black" cx="87.4497" cy="-90" rx="44.9768" ry="18"/>
<text text-anchor="middle" x="87.4497" y="-85.8" font-family="Times,serif" font-size="14.00">Comment</text>
</g>
<!-- Note -->
<g id="node3" class="node"><title>Note</title>
<ellipse fill="none" stroke="black" cx="323.45" cy="-252.5" rx="27.0958" ry="18"/>
<text text-anchor="middle" x="323.45" y="-248.3" font-family="Times,serif" font-size="14.00">Note</text>
</g>
<!-- Post -->
<g id="node4" class="node"><title>Post</title>
<ellipse fill="none" stroke="black" cx="215.45" cy="-162" rx="27" ry="18"/>
<text text-anchor="middle" x="215.45" y="-157.8" font-family="Times,serif" font-size="14.00">Post</text>
</g>
<!-- Post&#45;&gt;Comment -->
<g id="edge1" class="edge"><title>Post&#45;&gt;Comment</title>
<path fill="none" stroke="#7129da" d="M187.988,-145.982C168.606,-135.382 142.501,-121.106 121.749,-109.758"/>
<ellipse fill="none" stroke="#7129da" cx="191.658" cy="-147.989" rx="4.00002" ry="4.00002"/>
<polygon fill="#7129da" stroke="#7129da" points="121.701,-109.731 115.087,-100.985 117.314,-107.332 112.927,-104.933 112.927,-104.933 112.927,-104.933 117.314,-107.332 110.768,-108.881 121.701,-109.731 121.701,-109.731"/>
</g>
<!-- PostTag -->
<g id="node5" class="node"><title>PostTag</title>
<ellipse fill="none" stroke="black" cx="187.45" cy="-18" rx="38.4535" ry="18"/>
<text text-anchor="middle" x="187.45" y="-13.8" font-family="Times,serif" font-size="14.00">PostTag</text>
</g>
<!-- Post&#45;&gt;PostTag -->
<g id="edge3" class="edge"><title>Post&#45;&gt;PostTag</title>
<path fill="none" stroke="#5b7dd0" d="M196.573,-139.543C189.783,-130.456 182.941,-119.353 179.45,-108 173.237,-87.7951 175.904,-63.8851 179.758,-45.9382"/>
<ellipse fill="none" stroke="#5b7dd0" cx="199.229" cy="-142.923" rx="4.00002" ry="4.00002"/>
<polygon fill="#5b7dd0" stroke="#5b7dd0" points="179.777,-45.8583 186.483,-37.1817 180.942,-40.9959 182.107,-36.1334 182.107,-36.1334 182.107,-36.1334 180.942,-40.9959 177.731,-35.0852 179.777,-45.8583 179.777,-45.8583"/>
</g>
<!-- Tag -->
<g id="node6" class="node"><title>Tag</title>
<ellipse fill="none" stroke="black" cx="215.45" cy="-90" rx="27" ry="18"/>
<text text-anchor="middle" x="215.45" y="-85.8" font-family="Times,serif" font-size="14.00">Tag</text>
</g>
<!-- Post&#45;&gt;Tag -->
<g id="edge4" class="edge"><title>Post&#45;&gt;Tag</title>
<path fill="none" stroke="#29e630" d="M215.45,-133.665C215.45,-128.687 215.45,-123.491 215.45,-118.507"/>
<polygon fill="#29e630" stroke="#29e630" points="215.45,-133.697 210.95,-143.697 215.45,-138.697 215.45,-143.697 215.45,-143.697 215.45,-143.697 215.45,-138.697 219.95,-143.697 215.45,-133.697 215.45,-133.697"/>
<polygon fill="#29e630" stroke="#29e630" points="215.45,-118.104 219.95,-108.104 215.45,-113.104 215.45,-108.104 215.45,-108.104 215.45,-108.104 215.45,-113.104 210.95,-108.104 215.45,-118.104 215.45,-118.104"/>
</g>
<!-- Vote -->
<g id="node8" class="node"><title>Vote</title>
<ellipse fill="none" stroke="black" cx="287.45" cy="-90" rx="27" ry="18"/>
<text text-anchor="middle" x="287.45" y="-85.8" font-family="Times,serif" font-size="14.00">Vote</text>
</g>
<!-- Post&#45;&gt;Vote -->
<g id="edge2" class="edge"><title>Post&#45;&gt;Vote</title>
<path fill="none" stroke="#df64cd" d="M235.864,-141.152C245.111,-132.163 256.058,-121.52 265.483,-112.357"/>
<ellipse fill="none" stroke="#df64cd" cx="232.888" cy="-144.046" rx="4.00002" ry="4.00002"/>
<polygon fill="#df64cd" stroke="#df64cd" points="265.484,-112.356 275.791,-108.611 269.069,-108.87 272.654,-105.385 272.654,-105.385 272.654,-105.385 269.069,-108.87 269.517,-102.158 265.484,-112.356 265.484,-112.356"/>
</g>
<!-- Tag&#45;&gt;PostTag -->
<g id="edge5" class="edge"><title>Tag&#45;&gt;PostTag</title>
<path fill="none" stroke="#2b9d25" d="M205.761,-64.7779C203.267,-58.544 200.572,-51.8046 198.035,-45.4634"/>
<ellipse fill="none" stroke="#2b9d25" cx="207.329" cy="-68.6971" rx="4.00001" ry="4.00001"/>
<polygon fill="#2b9d25" stroke="#2b9d25" points="197.946,-45.241 198.41,-34.2849 196.089,-40.5986 194.232,-35.9562 194.232,-35.9562 194.232,-35.9562 196.089,-40.5986 190.054,-37.6275 197.946,-45.241 197.946,-45.241"/>
</g>
<!-- User -->
<g id="node7" class="node"><title>User</title>
<ellipse fill="none" stroke="black" cx="251.45" cy="-252.5" rx="27" ry="18"/>
<text text-anchor="middle" x="251.45" y="-248.3" font-family="Times,serif" font-size="14.00">User</text>
</g>
<!-- User&#45;&gt;Post -->
<g id="edge6" class="edge"><title>User&#45;&gt;Post</title>
<path fill="none" stroke="#a0b6b3" d="M241.622,-227.341C236.804,-215.496 230.994,-201.214 226.074,-189.117"/>
<ellipse fill="none" stroke="#a0b6b3" cx="243.171" cy="-231.149" rx="4.00001" ry="4.00001"/>
<polygon fill="#a0b6b3" stroke="#a0b6b3" points="225.959,-188.834 226.359,-177.876 224.075,-184.203 222.191,-179.572 222.191,-179.572 222.191,-179.572 224.075,-184.203 218.022,-181.267 225.959,-188.834 225.959,-188.834"/>
</g>
<!-- User&#45;&gt;Vote -->
<g id="edge7" class="edge"><title>User&#45;&gt;Vote</title>
<path fill="none" stroke="#af70e3" d="M257.077,-226.411C263.685,-196.949 274.604,-148.272 281.392,-118.006"/>
<ellipse fill="none" stroke="#af70e3" cx="256.11" cy="-230.724" rx="4.00001" ry="4.00001"/>
<polygon fill="#af70e3" stroke="#af70e3" points="281.419,-117.888 287.998,-109.115 282.513,-113.009 283.607,-108.13 283.607,-108.13 283.607,-108.13 282.513,-113.009 279.217,-107.145 281.419,-117.888 281.419,-117.888"/>
</g>
</g>
</svg>
