<?xml version="1.0" encoding="UTF-8" standalone="no"?>
<!DOCTYPE svg PUBLIC "-//W3C//DTD SVG 1.1//EN"
 "http://www.w3.org/Graphics/SVG/1.1/DTD/svg11.dtd">
<!-- Generated by graphviz version 2.38.0 (20140413.2041)
 -->
<!-- Title: models_diagram Pages: 1 -->
<svg width="366pt" height="246pt"
 viewBox="0.00 0.00 365.96 246.00" xmlns="http://www.w3.org/2000/svg" xmlns:xlink="http://www.w3.org/1999/xlink">
<g id="graph0" class="graph" transform="scale(1 1) rotate(0) translate(4 242)">
<title>models_diagram</title>
<polygon fill="none" stroke="none" points="-4,4 -4,-242 361.955,-242 361.955,4 -4,4"/>
<!-- _diagram_info -->
<g id="node1" class="node"><title>_diagram_info</title>
<text text-anchor="start" x="8" y="-209.6" font-family="Times,serif" font-size="13.00">Models diagram</text>
<text text-anchor="start" x="8" y="-196.6" font-family="Times,serif" font-size="13.00">Date: Jul 20 2016 &#45; 19:12</text>
<text text-anchor="start" x="8" y="-183.6" font-family="Times,serif" font-size="13.00">Migration version: 20160720231108</text>
<text text-anchor="start" x="8" y="-170.6" font-family="Times,serif" font-size="13.00">Generated by RailRoady 1.5.1</text>
<text text-anchor="start" x="8" y="-157.6" font-family="Times,serif" font-size="13.00">http://railroady.prestonlee.com</text>
</g>
<!-- Comment -->
<g id="node2" class="node"><title>Comment</title>
<path fill="none" stroke="black" d="M236.944,-0.5C236.944,-0.5 345.955,-0.5 345.955,-0.5 351.955,-0.5 357.955,-6.5 357.955,-12.5 357.955,-12.5 357.955,-88.5 357.955,-88.5 357.955,-94.5 351.955,-100.5 345.955,-100.5 345.955,-100.5 236.944,-100.5 236.944,-100.5 230.944,-100.5 224.944,-94.5 224.944,-88.5 224.944,-88.5 224.944,-12.5 224.944,-12.5 224.944,-6.5 230.944,-0.5 236.944,-0.5"/>
<text text-anchor="middle" x="291.45" y="-85.3" font-family="Times,serif" font-size="14.00">Comment</text>
<polyline fill="none" stroke="black" points="224.944,-78.5 357.955,-78.5 "/>
<text text-anchor="start" x="232.944" y="-63.3" font-family="Times,serif" font-size="14.00">id :INTEGER</text>
<text text-anchor="start" x="232.944" y="-49.3" font-family="Times,serif" font-size="14.00">content :text</text>
<text text-anchor="start" x="232.944" y="-35.3" font-family="Times,serif" font-size="14.00">post_id :integer</text>
<text text-anchor="start" x="232.944" y="-21.3" font-family="Times,serif" font-size="14.00">created_at :datetime</text>
<text text-anchor="start" x="232.944" y="-7.3" font-family="Times,serif" font-size="14.00">updated_at :datetime</text>
</g>
<!-- Post -->
<g id="node3" class="node"><title>Post</title>
<path fill="none" stroke="black" d="M236.944,-137.5C236.944,-137.5 345.955,-137.5 345.955,-137.5 351.955,-137.5 357.955,-143.5 357.955,-149.5 357.955,-149.5 357.955,-225.5 357.955,-225.5 357.955,-231.5 351.955,-237.5 345.955,-237.5 345.955,-237.5 236.944,-237.5 236.944,-237.5 230.944,-237.5 224.944,-231.5 224.944,-225.5 224.944,-225.5 224.944,-149.5 224.944,-149.5 224.944,-143.5 230.944,-137.5 236.944,-137.5"/>
<text text-anchor="middle" x="291.45" y="-222.3" font-family="Times,serif" font-size="14.00">Post</text>
<polyline fill="none" stroke="black" points="224.944,-215.5 357.955,-215.5 "/>
<text text-anchor="start" x="232.944" y="-200.3" font-family="Times,serif" font-size="14.00">id :INTEGER</text>
<text text-anchor="start" x="232.944" y="-186.3" font-family="Times,serif" font-size="14.00">name :varchar</text>
<text text-anchor="start" x="232.944" y="-172.3" font-family="Times,serif" font-size="14.00">content :text</text>
<text text-anchor="start" x="232.944" y="-158.3" font-family="Times,serif" font-size="14.00">created_at :datetime</text>
<text text-anchor="start" x="232.944" y="-144.3" font-family="Times,serif" font-size="14.00">updated_at :datetime</text>
</g>
<!-- Post&#45;&gt;Comment -->
<g id="edge1" class="edge"><title>Post&#45;&gt;Comment</title>
<path fill="none" stroke="#aaa8aa" d="M291.45,-129.176C291.45,-123.13 291.45,-116.973 291.45,-110.904"/>
<ellipse fill="none" stroke="#aaa8aa" cx="291.45" cy="-133.38" rx="4" ry="4"/>
<polygon fill="#aaa8aa" stroke="#aaa8aa" points="291.45,-110.81 295.95,-100.81 291.45,-105.81 291.45,-100.81 291.45,-100.81 291.45,-100.81 291.45,-105.81 286.95,-100.81 291.45,-110.81 291.45,-110.81"/>
</g>
</g>
</svg>
