<?xml version="1.0" encoding="UTF-8" standalone="no"?>
<!DOCTYPE svg PUBLIC "-//W3C//DTD SVG 1.1//EN"
 "http://www.w3.org/Graphics/SVG/1.1/DTD/svg11.dtd">
<!-- Generated by graphviz version 2.38.0 (20140413.2041)
 -->
<!-- Title: models_diagram Pages: 1 -->
<svg width="594pt" height="674pt"
 viewBox="0.00 0.00 594.01 674.00" xmlns="http://www.w3.org/2000/svg" xmlns:xlink="http://www.w3.org/1999/xlink">
<g id="graph0" class="graph" transform="scale(1 1) rotate(0) translate(4 670)">
<title>models_diagram</title>
<polygon fill="none" stroke="none" points="-4,4 -4,-670 590.011,-670 590.011,4 -4,4"/>
<!-- _diagram_info -->
<g id="node1" class="node"><title>_diagram_info</title>
<text text-anchor="start" x="13.0557" y="-574.6" font-family="Times,serif" font-size="13.00">Models diagram</text>
<text text-anchor="start" x="13.0557" y="-561.6" font-family="Times,serif" font-size="13.00">Date: Jul 22 2016 &#45; 21:13</text>
<text text-anchor="start" x="13.0557" y="-548.6" font-family="Times,serif" font-size="13.00">Migration version: 20160723011235</text>
<text text-anchor="start" x="13.0557" y="-535.6" font-family="Times,serif" font-size="13.00">Generated by RailRoady 1.5.1</text>
<text text-anchor="start" x="13.0557" y="-522.6" font-family="Times,serif" font-size="13.00">http://railroady.prestonlee.com</text>
</g>
<!-- Comment -->
<g id="node2" class="node"><title>Comment</title>
<path fill="none" stroke="black" d="M12,-144.5C12,-144.5 121.011,-144.5 121.011,-144.5 127.011,-144.5 133.011,-150.5 133.011,-156.5 133.011,-156.5 133.011,-232.5 133.011,-232.5 133.011,-238.5 127.011,-244.5 121.011,-244.5 121.011,-244.5 12,-244.5 12,-244.5 6,-244.5 0,-238.5 0,-232.5 0,-232.5 0,-156.5 0,-156.5 0,-150.5 6,-144.5 12,-144.5"/>
<text text-anchor="middle" x="66.5054" y="-229.3" font-family="Times,serif" font-size="14.00">Comment</text>
<polyline fill="none" stroke="black" points="0,-222.5 133.011,-222.5 "/>
<text text-anchor="start" x="8" y="-207.3" font-family="Times,serif" font-size="14.00">id :INTEGER</text>
<text text-anchor="start" x="8" y="-193.3" font-family="Times,serif" font-size="14.00">content :text</text>
<text text-anchor="start" x="8" y="-179.3" font-family="Times,serif" font-size="14.00">post_id :integer</text>
<text text-anchor="start" x="8" y="-165.3" font-family="Times,serif" font-size="14.00">created_at :datetime</text>
<text text-anchor="start" x="8" y="-151.3" font-family="Times,serif" font-size="14.00">updated_at :datetime</text>
</g>
<!-- Note -->
<g id="node3" class="node"><title>Note</title>
<path fill="none" stroke="black" d="M465,-502.5C465,-502.5 574.011,-502.5 574.011,-502.5 580.011,-502.5 586.011,-508.5 586.011,-514.5 586.011,-514.5 586.011,-590.5 586.011,-590.5 586.011,-596.5 580.011,-602.5 574.011,-602.5 574.011,-602.5 465,-602.5 465,-602.5 459,-602.5 453,-596.5 453,-590.5 453,-590.5 453,-514.5 453,-514.5 453,-508.5 459,-502.5 465,-502.5"/>
<text text-anchor="middle" x="519.505" y="-587.3" font-family="Times,serif" font-size="14.00">Note</text>
<polyline fill="none" stroke="black" points="453,-580.5 586.011,-580.5 "/>
<text text-anchor="start" x="461" y="-565.3" font-family="Times,serif" font-size="14.00">id :INTEGER</text>
<text text-anchor="start" x="461" y="-551.3" font-family="Times,serif" font-size="14.00">title :varchar</text>
<text text-anchor="start" x="461" y="-537.3" font-family="Times,serif" font-size="14.00">content :text</text>
<text text-anchor="start" x="461" y="-523.3" font-family="Times,serif" font-size="14.00">created_at :datetime</text>
<text text-anchor="start" x="461" y="-509.3" font-family="Times,serif" font-size="14.00">updated_at :datetime</text>
</g>
<!-- Post -->
<g id="node4" class="node"><title>Post</title>
<path fill="none" stroke="black" d="M202,-288.5C202,-288.5 311.011,-288.5 311.011,-288.5 317.011,-288.5 323.011,-294.5 323.011,-300.5 323.011,-300.5 323.011,-390.5 323.011,-390.5 323.011,-396.5 317.011,-402.5 311.011,-402.5 311.011,-402.5 202,-402.5 202,-402.5 196,-402.5 190,-396.5 190,-390.5 190,-390.5 190,-300.5 190,-300.5 190,-294.5 196,-288.5 202,-288.5"/>
<text text-anchor="middle" x="256.505" y="-387.3" font-family="Times,serif" font-size="14.00">Post</text>
<polyline fill="none" stroke="black" points="190,-380.5 323.011,-380.5 "/>
<text text-anchor="start" x="198" y="-365.3" font-family="Times,serif" font-size="14.00">id :INTEGER</text>
<text text-anchor="start" x="198" y="-351.3" font-family="Times,serif" font-size="14.00">name :varchar</text>
<text text-anchor="start" x="198" y="-337.3" font-family="Times,serif" font-size="14.00">content :text</text>
<text text-anchor="start" x="198" y="-323.3" font-family="Times,serif" font-size="14.00">created_at :datetime</text>
<text text-anchor="start" x="198" y="-309.3" font-family="Times,serif" font-size="14.00">updated_at :datetime</text>
<text text-anchor="start" x="198" y="-295.3" font-family="Times,serif" font-size="14.00">user_id :integer</text>
</g>
<!-- Post&#45;&gt;Comment -->
<g id="edge1" class="edge"><title>Post&#45;&gt;Comment</title>
<path fill="none" stroke="#0da637" d="M183.271,-287.069C168.228,-275.272 152.415,-262.871 137.455,-251.139"/>
<ellipse fill="none" stroke="#0da637" cx="186.638" cy="-289.709" rx="4.00002" ry="4.00002"/>
<polygon fill="#0da637" stroke="#0da637" points="137.11,-250.869 132.018,-241.157 133.175,-247.783 129.241,-244.698 129.241,-244.698 129.241,-244.698 133.175,-247.783 126.464,-248.239 137.11,-250.869 137.11,-250.869"/>
</g>
<!-- PostTag -->
<g id="node5" class="node"><title>PostTag</title>
<path fill="none" stroke="black" d="M154,-0.5C154,-0.5 263.011,-0.5 263.011,-0.5 269.011,-0.5 275.011,-6.5 275.011,-12.5 275.011,-12.5 275.011,-88.5 275.011,-88.5 275.011,-94.5 269.011,-100.5 263.011,-100.5 263.011,-100.5 154,-100.5 154,-100.5 148,-100.5 142,-94.5 142,-88.5 142,-88.5 142,-12.5 142,-12.5 142,-6.5 148,-0.5 154,-0.5"/>
<text text-anchor="middle" x="208.505" y="-85.3" font-family="Times,serif" font-size="14.00">PostTag</text>
<polyline fill="none" stroke="black" points="142,-78.5 275.011,-78.5 "/>
<text text-anchor="start" x="150" y="-63.3" font-family="Times,serif" font-size="14.00">id :INTEGER</text>
<text text-anchor="start" x="150" y="-49.3" font-family="Times,serif" font-size="14.00">post_id :integer</text>
<text text-anchor="start" x="150" y="-35.3" font-family="Times,serif" font-size="14.00">tag_id :integer</text>
<text text-anchor="start" x="150" y="-21.3" font-family="Times,serif" font-size="14.00">created_at :datetime</text>
<text text-anchor="start" x="150" y="-7.3" font-family="Times,serif" font-size="14.00">updated_at :datetime</text>
</g>
<!-- Post&#45;&gt;PostTag -->
<g id="edge3" class="edge"><title>Post&#45;&gt;PostTag</title>
<path fill="none" stroke="#d2f4b0" d="M195.831,-281.66C189.593,-272.301 184.199,-262.313 180.505,-252 164.084,-206.147 173.645,-151.186 185.871,-110.413"/>
<ellipse fill="none" stroke="#d2f4b0" cx="198.22" cy="-285.08" rx="4.00002" ry="4.00002"/>
<polygon fill="#d2f4b0" stroke="#d2f4b0" points="185.947,-110.173 193.231,-101.976 187.442,-105.401 188.937,-100.63 188.937,-100.63 188.937,-100.63 187.442,-105.401 184.643,-99.2846 185.947,-110.173 185.947,-110.173"/>
</g>
<!-- Tag -->
<g id="node6" class="node"><title>Tag</title>
<path fill="none" stroke="black" d="M202,-151.5C202,-151.5 311.011,-151.5 311.011,-151.5 317.011,-151.5 323.011,-157.5 323.011,-163.5 323.011,-163.5 323.011,-225.5 323.011,-225.5 323.011,-231.5 317.011,-237.5 311.011,-237.5 311.011,-237.5 202,-237.5 202,-237.5 196,-237.5 190,-231.5 190,-225.5 190,-225.5 190,-163.5 190,-163.5 190,-157.5 196,-151.5 202,-151.5"/>
<text text-anchor="middle" x="256.505" y="-222.3" font-family="Times,serif" font-size="14.00">Tag</text>
<polyline fill="none" stroke="black" points="190,-215.5 323.011,-215.5 "/>
<text text-anchor="start" x="198" y="-200.3" font-family="Times,serif" font-size="14.00">id :INTEGER</text>
<text text-anchor="start" x="198" y="-186.3" font-family="Times,serif" font-size="14.00">name :varchar</text>
<text text-anchor="start" x="198" y="-172.3" font-family="Times,serif" font-size="14.00">created_at :datetime</text>
<text text-anchor="start" x="198" y="-158.3" font-family="Times,serif" font-size="14.00">updated_at :datetime</text>
</g>
<!-- Post&#45;&gt;Tag -->
<g id="edge4" class="edge"><title>Post&#45;&gt;Tag</title>
<path fill="none" stroke="#b1135c" d="M256.505,-277.793C256.505,-267.732 256.505,-257.479 256.505,-247.78"/>
<polygon fill="#b1135c" stroke="#b1135c" points="256.505,-278.169 252.005,-288.169 256.505,-283.169 256.505,-288.169 256.505,-288.169 256.505,-288.169 256.505,-283.169 261.005,-288.17 256.505,-278.169 256.505,-278.169"/>
<polygon fill="#b1135c" stroke="#b1135c" points="256.505,-247.507 261.005,-237.507 256.505,-242.507 256.505,-237.507 256.505,-237.507 256.505,-237.507 256.505,-242.507 252.005,-237.507 256.505,-247.507 256.505,-247.507"/>
</g>
<!-- Vote -->
<g id="node8" class="node"><title>Vote</title>
<path fill="none" stroke="black" d="M353,-137.5C353,-137.5 462.011,-137.5 462.011,-137.5 468.011,-137.5 474.011,-143.5 474.011,-149.5 474.011,-149.5 474.011,-239.5 474.011,-239.5 474.011,-245.5 468.011,-251.5 462.011,-251.5 462.011,-251.5 353,-251.5 353,-251.5 347,-251.5 341,-245.5 341,-239.5 341,-239.5 341,-149.5 341,-149.5 341,-143.5 347,-137.5 353,-137.5"/>
<text text-anchor="middle" x="407.505" y="-236.3" font-family="Times,serif" font-size="14.00">Vote</text>
<polyline fill="none" stroke="black" points="341,-229.5 474.011,-229.5 "/>
<text text-anchor="start" x="349" y="-214.3" font-family="Times,serif" font-size="14.00">id :INTEGER</text>
<text text-anchor="start" x="349" y="-200.3" font-family="Times,serif" font-size="14.00">score :integer</text>
<text text-anchor="start" x="349" y="-186.3" font-family="Times,serif" font-size="14.00">post_id :integer</text>
<text text-anchor="start" x="349" y="-172.3" font-family="Times,serif" font-size="14.00">created_at :datetime</text>
<text text-anchor="start" x="349" y="-158.3" font-family="Times,serif" font-size="14.00">updated_at :datetime</text>
<text text-anchor="start" x="349" y="-144.3" font-family="Times,serif" font-size="14.00">user_id :integer</text>
</g>
<!-- Post&#45;&gt;Vote -->
<g id="edge2" class="edge"><title>Post&#45;&gt;Vote</title>
<path fill="none" stroke="#0efe14" d="M319.313,-282.525C327.25,-274.692 335.38,-266.67 343.339,-258.817"/>
<ellipse fill="none" stroke="#0efe14" cx="316.439" cy="-285.36" rx="4.00002" ry="4.00002"/>
<polygon fill="#0efe14" stroke="#0efe14" points="343.47,-258.687 353.749,-254.866 347.029,-255.175 350.589,-251.663 350.589,-251.663 350.589,-251.663 347.029,-255.175 347.428,-248.46 343.47,-258.687 343.47,-258.687"/>
</g>
<!-- Tag&#45;&gt;PostTag -->
<g id="edge5" class="edge"><title>Tag&#45;&gt;PostTag</title>
<path fill="none" stroke="#07da8f" d="M239.655,-143.652C236,-132.838 232.101,-121.304 228.343,-110.186"/>
<ellipse fill="none" stroke="#07da8f" cx="240.953" cy="-147.49" rx="4.00001" ry="4.00001"/>
<polygon fill="#07da8f" stroke="#07da8f" points="228.288,-110.024 229.349,-99.1098 226.687,-105.288 225.086,-100.551 225.086,-100.551 225.086,-100.551 226.687,-105.288 220.823,-101.992 228.288,-110.024 228.288,-110.024"/>
</g>
<!-- User -->
<g id="node7" class="node"><title>User</title>
<path fill="none" stroke="black" d="M242.228,-439.5C242.228,-439.5 422.783,-439.5 422.783,-439.5 428.783,-439.5 434.783,-445.5 434.783,-451.5 434.783,-451.5 434.783,-653.5 434.783,-653.5 434.783,-659.5 428.783,-665.5 422.783,-665.5 422.783,-665.5 242.228,-665.5 242.228,-665.5 236.228,-665.5 230.228,-659.5 230.228,-653.5 230.228,-653.5 230.228,-451.5 230.228,-451.5 230.228,-445.5 236.228,-439.5 242.228,-439.5"/>
<text text-anchor="middle" x="332.505" y="-650.3" font-family="Times,serif" font-size="14.00">User</text>
<polyline fill="none" stroke="black" points="230.228,-643.5 434.783,-643.5 "/>
<text text-anchor="start" x="238.228" y="-628.3" font-family="Times,serif" font-size="14.00">name :varchar</text>
<text text-anchor="start" x="238.228" y="-614.3" font-family="Times,serif" font-size="14.00">email :varchar</text>
<text text-anchor="start" x="238.228" y="-600.3" font-family="Times,serif" font-size="14.00">encrypted_password :varchar</text>
<text text-anchor="start" x="238.228" y="-586.3" font-family="Times,serif" font-size="14.00">reset_password_token :varchar</text>
<text text-anchor="start" x="238.228" y="-572.3" font-family="Times,serif" font-size="14.00">reset_password_sent_at :datetime</text>
<text text-anchor="start" x="238.228" y="-558.3" font-family="Times,serif" font-size="14.00">remember_created_at :datetime</text>
<text text-anchor="start" x="238.228" y="-544.3" font-family="Times,serif" font-size="14.00">sign_in_count :integer</text>
<text text-anchor="start" x="238.228" y="-530.3" font-family="Times,serif" font-size="14.00">current_sign_in_at :datetime</text>
<text text-anchor="start" x="238.228" y="-516.3" font-family="Times,serif" font-size="14.00">last_sign_in_at :datetime</text>
<text text-anchor="start" x="238.228" y="-502.3" font-family="Times,serif" font-size="14.00">current_sign_in_ip :varchar</text>
<text text-anchor="start" x="238.228" y="-488.3" font-family="Times,serif" font-size="14.00">last_sign_in_ip :varchar</text>
<text text-anchor="start" x="238.228" y="-474.3" font-family="Times,serif" font-size="14.00">created_at :datetime</text>
<text text-anchor="start" x="238.228" y="-460.3" font-family="Times,serif" font-size="14.00">updated_at :datetime</text>
<text text-anchor="start" x="238.228" y="-446.3" font-family="Times,serif" font-size="14.00">id :INTEGER</text>
</g>
<!-- User&#45;&gt;Post -->
<g id="edge6" class="edge"><title>User&#45;&gt;Post</title>
<path fill="none" stroke="#f82577" d="M288.087,-431.688C285.644,-425.099 283.238,-418.608 280.91,-412.329"/>
<ellipse fill="none" stroke="#f82577" cx="289.557" cy="-435.653" rx="4.00001" ry="4.00001"/>
<polygon fill="#f82577" stroke="#f82577" points="280.799,-412.029 281.542,-401.088 279.061,-407.341 277.323,-402.653 277.323,-402.653 277.323,-402.653 279.061,-407.341 273.104,-404.217 280.799,-412.029 280.799,-412.029"/>
</g>
<!-- User&#45;&gt;Vote -->
<g id="edge7" class="edge"><title>User&#45;&gt;Vote</title>
<path fill="none" stroke="#d02fb7" d="M357.841,-431.242C369.77,-374.617 383.541,-309.249 393.552,-261.73"/>
<ellipse fill="none" stroke="#d02fb7" cx="356.958" cy="-435.434" rx="4.00001" ry="4.00001"/>
<polygon fill="#d02fb7" stroke="#d02fb7" points="393.568,-261.656 400.033,-252.799 394.599,-256.763 395.629,-251.871 395.629,-251.871 395.629,-251.871 394.599,-256.763 391.226,-250.943 393.568,-261.656 393.568,-261.656"/>
</g>
</g>
</svg>
