<?xml version="1.0" encoding="UTF-8" standalone="no"?>
<!DOCTYPE svg PUBLIC "-//W3C//DTD SVG 1.1//EN"
 "http://www.w3.org/Graphics/SVG/1.1/DTD/svg11.dtd">
<!-- Generated by graphviz version 2.38.0 (20140413.2041)
 -->
<!-- Title: models_diagram Pages: 1 -->
<svg width="304pt" height="153pt"
 viewBox="0.00 0.00 304.44 153.00" xmlns="http://www.w3.org/2000/svg" xmlns:xlink="http://www.w3.org/1999/xlink">
<g id="graph0" class="graph" transform="scale(1 1) rotate(0) translate(4 149)">
<title>models_diagram</title>
<polygon fill="none" stroke="none" points="-4,4 -4,-149 300.438,-149 300.438,4 -4,4"/>
<!-- _diagram_info -->
<g id="node1" class="node"><title>_diagram_info</title>
<text text-anchor="start" x="8" y="-130.6" font-family="Times,serif" font-size="13.00">Models diagram</text>
<text text-anchor="start" x="8" y="-117.6" font-family="Times,serif" font-size="13.00">Date: Jul 20 2016 &#45; 19:12</text>
<text text-anchor="start" x="8" y="-104.6" font-family="Times,serif" font-size="13.00">Migration version: 20160720231108</text>
<text text-anchor="start" x="8" y="-91.6" font-family="Times,serif" font-size="13.00">Generated by RailRoady 1.5.1</text>
<text text-anchor="start" x="8" y="-78.6" font-family="Times,serif" font-size="13.00">http://railroady.prestonlee.com</text>
</g>
<!-- Comment -->
<g id="node2" class="node"><title>Comment</title>
<ellipse fill="none" stroke="black" cx="251.45" cy="-18" rx="44.9768" ry="18"/>
<text text-anchor="middle" x="251.45" y="-13.8" font-family="Times,serif" font-size="14.00">Comment</text>
</g>
<!-- Post -->
<g id="node3" class="node"><title>Post</title>
<ellipse fill="none" stroke="black" cx="251.45" cy="-108.5" rx="27" ry="18"/>
<text text-anchor="middle" x="251.45" y="-104.3" font-family="Times,serif" font-size="14.00">Post</text>
</g>
<!-- Post&#45;&gt;Comment -->
<g id="edge1" class="edge"><title>Post&#45;&gt;Comment</title>
<path fill="none" stroke="#5bf1f5" d="M251.45,-82.189C251.45,-70.9711 251.45,-57.7517 251.45,-46.3113"/>
<ellipse fill="none" stroke="#5bf1f5" cx="251.45" cy="-86.4363" rx="4" ry="4"/>
<polygon fill="#5bf1f5" stroke="#5bf1f5" points="251.45,-46.0113 255.95,-36.0113 251.45,-41.0113 251.45,-36.0113 251.45,-36.0113 251.45,-36.0113 251.45,-41.0113 246.95,-36.0113 251.45,-46.0113 251.45,-46.0113"/>
</g>
</g>
</svg>
